PERFORMER "Desyn Masiello"
TITLE "Essential Mix (2005-03-27)"
FILE "Desyn - Essential Mix (WMC 2005).mp3" MP3
  TRACK 01 AUDIO
    TITLE "This World (Instrumental)"
    PERFORMER "Slam"
    INDEX 01 00:00:00
  TRACK 02 AUDIO
    TITLE "The Moon"
    PERFORMER "Alra"
    INDEX 01 06:40:32
  TRACK 03 AUDIO
    TITLE "Casa De X (Osamu M Remix)"
    PERFORMER "Deep Dish"
    INDEX 01 12:09:29
  TRACK 04 AUDIO
    TITLE "Harmony Of Soul"
    PERFORMER "Elecricano"
    INDEX 01 17:57:42
  TRACK 05 AUDIO
    PERFORMER "ID"
    TITLE "ID"
    INDEX 01 26:50:42
  TRACK 06 AUDIO
    TITLE "Piano Track"
    PERFORMER "Andry Nalin"
    INDEX 01 32:27:00
  TRACK 07 AUDIO
    PERFORMER "ID"
    TITLE "ID"
    INDEX 01 39:19:75
  TRACK 08 AUDIO
    PERFORMER "ID"
    TITLE "ID"
    INDEX 01 45:18:26
  TRACK 09 AUDIO
    PERFORMER "ID"
    TITLE "ID"
    INDEX 01 51:34:72
  TRACK 10 AUDIO
    TITLE "Ride (Mashtronic Mix)"
    PERFORMER "Chable & Bonnici"
    INDEX 01 57:17:04
 